%TF.GenerationSoftware,KiCad,Pcbnew,8.0.7*%
%TF.CreationDate,2025-02-09T15:31:53-05:00*%
%TF.ProjectId,ATTiny_416_Sensor_Board,41545469-6e79-45f3-9431-365f53656e73,rev?*%
%TF.SameCoordinates,Original*%
%TF.FileFunction,Copper,L1,Top*%
%TF.FilePolarity,Positive*%
%FSLAX46Y46*%
G04 Gerber Fmt 4.6, Leading zero omitted, Abs format (unit mm)*
G04 Created by KiCad (PCBNEW 8.0.7) date 2025-02-09 15:31:53*
%MOMM*%
%LPD*%
G01*
G04 APERTURE LIST*
G04 Aperture macros list*
%AMRoundRect*
0 Rectangle with rounded corners*
0 $1 Rounding radius*
0 $2 $3 $4 $5 $6 $7 $8 $9 X,Y pos of 4 corners*
0 Add a 4 corners polygon primitive as box body*
4,1,4,$2,$3,$4,$5,$6,$7,$8,$9,$2,$3,0*
0 Add four circle primitives for the rounded corners*
1,1,$1+$1,$2,$3*
1,1,$1+$1,$4,$5*
1,1,$1+$1,$6,$7*
1,1,$1+$1,$8,$9*
0 Add four rect primitives between the rounded corners*
20,1,$1+$1,$2,$3,$4,$5,0*
20,1,$1+$1,$4,$5,$6,$7,0*
20,1,$1+$1,$6,$7,$8,$9,0*
20,1,$1+$1,$8,$9,$2,$3,0*%
%AMFreePoly0*
4,1,14,0.334644,0.085355,0.385355,0.034644,0.400000,-0.000711,0.400000,-0.050000,0.385355,-0.085355,0.350000,-0.100000,-0.350000,-0.100000,-0.385355,-0.085355,-0.400000,-0.050000,-0.400000,0.050000,-0.385355,0.085355,-0.350000,0.100000,0.299289,0.100000,0.334644,0.085355,0.334644,0.085355,$1*%
%AMFreePoly1*
4,1,14,0.385355,0.085355,0.400000,0.050000,0.400000,0.000711,0.385355,-0.034644,0.334644,-0.085355,0.299289,-0.100000,-0.350000,-0.100000,-0.385355,-0.085355,-0.400000,-0.050000,-0.400000,0.050000,-0.385355,0.085355,-0.350000,0.100000,0.350000,0.100000,0.385355,0.085355,0.385355,0.085355,$1*%
%AMFreePoly2*
4,1,14,0.085355,0.385355,0.100000,0.350000,0.100000,-0.350000,0.085355,-0.385355,0.050000,-0.400000,-0.050000,-0.400000,-0.085355,-0.385355,-0.100000,-0.350000,-0.100000,0.299289,-0.085355,0.334644,-0.034644,0.385355,0.000711,0.400000,0.050000,0.400000,0.085355,0.385355,0.085355,0.385355,$1*%
%AMFreePoly3*
4,1,14,0.034644,0.385355,0.085355,0.334644,0.100000,0.299289,0.100000,-0.350000,0.085355,-0.385355,0.050000,-0.400000,-0.050000,-0.400000,-0.085355,-0.385355,-0.100000,-0.350000,-0.100000,0.350000,-0.085355,0.385355,-0.050000,0.400000,-0.000711,0.400000,0.034644,0.385355,0.034644,0.385355,$1*%
%AMFreePoly4*
4,1,14,0.385355,0.085355,0.400000,0.050000,0.400000,-0.050000,0.385355,-0.085355,0.350000,-0.100000,-0.299289,-0.100000,-0.334644,-0.085355,-0.385355,-0.034644,-0.400000,0.000711,-0.400000,0.050000,-0.385355,0.085355,-0.350000,0.100000,0.350000,0.100000,0.385355,0.085355,0.385355,0.085355,$1*%
%AMFreePoly5*
4,1,14,0.385355,0.085355,0.400000,0.050000,0.400000,-0.050000,0.385355,-0.085355,0.350000,-0.100000,-0.350000,-0.100000,-0.385355,-0.085355,-0.400000,-0.050000,-0.400000,-0.000711,-0.385355,0.034644,-0.334644,0.085355,-0.299289,0.100000,0.350000,0.100000,0.385355,0.085355,0.385355,0.085355,$1*%
%AMFreePoly6*
4,1,14,0.085355,0.385355,0.100000,0.350000,0.100000,-0.299289,0.085355,-0.334644,0.034644,-0.385355,-0.000711,-0.400000,-0.050000,-0.400000,-0.085355,-0.385355,-0.100000,-0.350000,-0.100000,0.350000,-0.085355,0.385355,-0.050000,0.400000,0.050000,0.400000,0.085355,0.385355,0.085355,0.385355,$1*%
%AMFreePoly7*
4,1,14,0.085355,0.385355,0.100000,0.350000,0.100000,-0.350000,0.085355,-0.385355,0.050000,-0.400000,0.000711,-0.400000,-0.034644,-0.385355,-0.085355,-0.334644,-0.100000,-0.299289,-0.100000,0.350000,-0.085355,0.385355,-0.050000,0.400000,0.050000,0.400000,0.085355,0.385355,0.085355,0.385355,$1*%
%AMFreePoly8*
4,1,19,0.500000,-0.750000,0.000000,-0.750000,0.000000,-0.744911,-0.071157,-0.744911,-0.207708,-0.704816,-0.327430,-0.627875,-0.420627,-0.520320,-0.479746,-0.390866,-0.500000,-0.250000,-0.500000,0.250000,-0.479746,0.390866,-0.420627,0.520320,-0.327430,0.627875,-0.207708,0.704816,-0.071157,0.744911,0.000000,0.744911,0.000000,0.750000,0.500000,0.750000,0.500000,-0.750000,0.500000,-0.750000,
$1*%
%AMFreePoly9*
4,1,19,0.000000,0.744911,0.071157,0.744911,0.207708,0.704816,0.327430,0.627875,0.420627,0.520320,0.479746,0.390866,0.500000,0.250000,0.500000,-0.250000,0.479746,-0.390866,0.420627,-0.520320,0.327430,-0.627875,0.207708,-0.704816,0.071157,-0.744911,0.000000,-0.744911,0.000000,-0.750000,-0.500000,-0.750000,-0.500000,0.750000,0.000000,0.750000,0.000000,0.744911,0.000000,0.744911,
$1*%
G04 Aperture macros list end*
%TA.AperFunction,SMDPad,CuDef*%
%ADD10R,0.700000X1.000000*%
%TD*%
%TA.AperFunction,SMDPad,CuDef*%
%ADD11R,1.800000X0.600000*%
%TD*%
%TA.AperFunction,SMDPad,CuDef*%
%ADD12R,2.300000X2.000000*%
%TD*%
%TA.AperFunction,ComponentPad*%
%ADD13O,2.980000X1.490000*%
%TD*%
%TA.AperFunction,SMDPad,CuDef*%
%ADD14R,1.000000X0.500000*%
%TD*%
%TA.AperFunction,ComponentPad*%
%ADD15R,1.700000X1.700000*%
%TD*%
%TA.AperFunction,ComponentPad*%
%ADD16O,1.700000X1.700000*%
%TD*%
%TA.AperFunction,SMDPad,CuDef*%
%ADD17RoundRect,0.250000X0.475000X-0.337500X0.475000X0.337500X-0.475000X0.337500X-0.475000X-0.337500X0*%
%TD*%
%TA.AperFunction,SMDPad,CuDef*%
%ADD18FreePoly0,0.000000*%
%TD*%
%TA.AperFunction,SMDPad,CuDef*%
%ADD19RoundRect,0.050000X-0.350000X-0.050000X0.350000X-0.050000X0.350000X0.050000X-0.350000X0.050000X0*%
%TD*%
%TA.AperFunction,SMDPad,CuDef*%
%ADD20FreePoly1,0.000000*%
%TD*%
%TA.AperFunction,SMDPad,CuDef*%
%ADD21FreePoly2,0.000000*%
%TD*%
%TA.AperFunction,SMDPad,CuDef*%
%ADD22RoundRect,0.050000X-0.050000X-0.350000X0.050000X-0.350000X0.050000X0.350000X-0.050000X0.350000X0*%
%TD*%
%TA.AperFunction,SMDPad,CuDef*%
%ADD23FreePoly3,0.000000*%
%TD*%
%TA.AperFunction,SMDPad,CuDef*%
%ADD24FreePoly4,0.000000*%
%TD*%
%TA.AperFunction,SMDPad,CuDef*%
%ADD25FreePoly5,0.000000*%
%TD*%
%TA.AperFunction,SMDPad,CuDef*%
%ADD26FreePoly6,0.000000*%
%TD*%
%TA.AperFunction,SMDPad,CuDef*%
%ADD27FreePoly7,0.000000*%
%TD*%
%TA.AperFunction,HeatsinkPad*%
%ADD28R,1.700000X1.700000*%
%TD*%
%TA.AperFunction,SMDPad,CuDef*%
%ADD29RoundRect,0.250000X0.337500X0.475000X-0.337500X0.475000X-0.337500X-0.475000X0.337500X-0.475000X0*%
%TD*%
%TA.AperFunction,SMDPad,CuDef*%
%ADD30RoundRect,0.250000X-0.325000X-0.450000X0.325000X-0.450000X0.325000X0.450000X-0.325000X0.450000X0*%
%TD*%
%TA.AperFunction,SMDPad,CuDef*%
%ADD31RoundRect,0.250000X0.350000X0.450000X-0.350000X0.450000X-0.350000X-0.450000X0.350000X-0.450000X0*%
%TD*%
%TA.AperFunction,SMDPad,CuDef*%
%ADD32RoundRect,0.250000X1.100000X-0.412500X1.100000X0.412500X-1.100000X0.412500X-1.100000X-0.412500X0*%
%TD*%
%TA.AperFunction,SMDPad,CuDef*%
%ADD33RoundRect,0.250000X-0.350000X-0.450000X0.350000X-0.450000X0.350000X0.450000X-0.350000X0.450000X0*%
%TD*%
%TA.AperFunction,SMDPad,CuDef*%
%ADD34RoundRect,0.375000X-0.625000X-0.375000X0.625000X-0.375000X0.625000X0.375000X-0.625000X0.375000X0*%
%TD*%
%TA.AperFunction,SMDPad,CuDef*%
%ADD35RoundRect,0.500000X-0.500000X-1.400000X0.500000X-1.400000X0.500000X1.400000X-0.500000X1.400000X0*%
%TD*%
%TA.AperFunction,SMDPad,CuDef*%
%ADD36RoundRect,0.250000X-0.450000X0.350000X-0.450000X-0.350000X0.450000X-0.350000X0.450000X0.350000X0*%
%TD*%
%TA.AperFunction,SMDPad,CuDef*%
%ADD37RoundRect,0.250000X-0.475000X0.337500X-0.475000X-0.337500X0.475000X-0.337500X0.475000X0.337500X0*%
%TD*%
%TA.AperFunction,SMDPad,CuDef*%
%ADD38R,0.400000X1.200000*%
%TD*%
%TA.AperFunction,SMDPad,CuDef*%
%ADD39RoundRect,0.250000X0.450000X-0.350000X0.450000X0.350000X-0.450000X0.350000X-0.450000X-0.350000X0*%
%TD*%
%TA.AperFunction,SMDPad,CuDef*%
%ADD40RoundRect,0.250000X-0.337500X-0.475000X0.337500X-0.475000X0.337500X0.475000X-0.337500X0.475000X0*%
%TD*%
%TA.AperFunction,SMDPad,CuDef*%
%ADD41RoundRect,0.250000X0.375000X0.625000X-0.375000X0.625000X-0.375000X-0.625000X0.375000X-0.625000X0*%
%TD*%
%TA.AperFunction,SMDPad,CuDef*%
%ADD42RoundRect,0.250000X0.450000X-0.325000X0.450000X0.325000X-0.450000X0.325000X-0.450000X-0.325000X0*%
%TD*%
%TA.AperFunction,SMDPad,CuDef*%
%ADD43C,2.500000*%
%TD*%
%TA.AperFunction,SMDPad,CuDef*%
%ADD44RoundRect,0.150000X-0.512500X-0.150000X0.512500X-0.150000X0.512500X0.150000X-0.512500X0.150000X0*%
%TD*%
%TA.AperFunction,ComponentPad*%
%ADD45R,1.524000X1.524000*%
%TD*%
%TA.AperFunction,ComponentPad*%
%ADD46C,1.524000*%
%TD*%
%TA.AperFunction,SMDPad,CuDef*%
%ADD47FreePoly8,0.000000*%
%TD*%
%TA.AperFunction,SMDPad,CuDef*%
%ADD48FreePoly9,0.000000*%
%TD*%
%TA.AperFunction,SMDPad,CuDef*%
%ADD49RoundRect,0.062500X-0.062500X-0.762500X0.062500X-0.762500X0.062500X0.762500X-0.062500X0.762500X0*%
%TD*%
%TA.AperFunction,SMDPad,CuDef*%
%ADD50RoundRect,0.100000X-0.300000X-0.050000X0.300000X-0.050000X0.300000X0.050000X-0.300000X0.050000X0*%
%TD*%
%TA.AperFunction,SMDPad,CuDef*%
%ADD51RoundRect,0.100000X0.100000X-0.650000X0.100000X0.650000X-0.100000X0.650000X-0.100000X-0.650000X0*%
%TD*%
%TA.AperFunction,SMDPad,CuDef*%
%ADD52RoundRect,0.250000X0.400000X0.625000X-0.400000X0.625000X-0.400000X-0.625000X0.400000X-0.625000X0*%
%TD*%
%TA.AperFunction,ViaPad*%
%ADD53C,0.700000*%
%TD*%
%TA.AperFunction,Conductor*%
%ADD54C,0.500000*%
%TD*%
%TA.AperFunction,Conductor*%
%ADD55C,0.200000*%
%TD*%
%TA.AperFunction,Conductor*%
%ADD56C,0.300000*%
%TD*%
%TA.AperFunction,Conductor*%
%ADD57C,0.150000*%
%TD*%
%TA.AperFunction,Conductor*%
%ADD58C,1.000000*%
%TD*%
G04 APERTURE END LIST*
D10*
%TO.P,U5,1*%
%TO.N,/Power/IDEAL_ANODE*%
X151725000Y-87574500D03*
%TO.P,U5,2*%
X152675000Y-87574500D03*
%TO.P,U5,3*%
%TO.N,Net-(U3-BIAS)*%
X153625000Y-87574500D03*
%TO.P,U5,4*%
%TO.N,/Power/IDEAL_CATHODE*%
X153625000Y-85375500D03*
%TO.P,U5,5*%
%TO.N,/Power/IDEAL_ANODE*%
X152675000Y-85375500D03*
%TO.P,U5,6*%
X151725000Y-85375500D03*
%TD*%
D11*
%TO.P,J2,1,VCC*%
%TO.N,Net-(J2-VCC)*%
X118492500Y-105674500D03*
%TO.P,J2,2,D-*%
%TO.N,/USB to UART Conversion/USB_D-*%
X118492500Y-106474500D03*
%TO.P,J2,3,D+*%
%TO.N,/USB to UART Conversion/USB_D+*%
X118492500Y-107274500D03*
%TO.P,J2,4,ID*%
%TO.N,unconnected-(J2-ID-Pad4)*%
X118492500Y-108074500D03*
%TO.P,J2,5,GND*%
%TO.N,GND*%
X118492500Y-108874500D03*
D12*
%TO.P,J2,SH1,SHIELD*%
%TO.N,unconnected-(J2-SHIELD-PadSH1)*%
X118542500Y-102824500D03*
%TO.P,J2,SH2,SHIELD__1*%
%TO.N,unconnected-(J2-SHIELD__1-PadSH2)*%
X118542500Y-111724500D03*
D13*
%TO.P,J2,SH3,SHIELD__2*%
%TO.N,unconnected-(J2-SHIELD__2-PadSH3)*%
X114042500Y-103624500D03*
%TO.P,J2,SH4,SHIELD__3*%
%TO.N,unconnected-(J2-SHIELD__3-PadSH4)*%
X114042500Y-110924500D03*
%TD*%
D14*
%TO.P,Y1,1,1*%
%TO.N,/ATTiny416/TOSC1*%
X183600000Y-98299500D03*
%TO.P,Y1,2,2*%
%TO.N,/ATTiny416/TOSC2*%
X183600000Y-97199500D03*
%TD*%
D15*
%TO.P,J5,1,Pin_1*%
%TO.N,GND*%
X164250000Y-116599500D03*
D16*
%TO.P,J5,2,Pin_2*%
%TO.N,ATTiny416_UART_RX*%
X161710000Y-116599500D03*
%TO.P,J5,3,Pin_3*%
%TO.N,ATTiny416_UART_TX*%
X159170000Y-116599500D03*
%TD*%
D17*
%TO.P,C1,1*%
%TO.N,+3.3V*%
X173400000Y-99174500D03*
%TO.P,C1,2*%
%TO.N,GND*%
X173400000Y-97099500D03*
%TD*%
D18*
%TO.P,U1,1,PA2*%
%TO.N,ATTiny416_UART_RX*%
X176550000Y-96499500D03*
D19*
%TO.P,U1,2,PA3*%
%TO.N,Net-(D3-K)*%
X176550000Y-96899500D03*
%TO.P,U1,3,GND*%
%TO.N,GND*%
X176550000Y-97299500D03*
%TO.P,U1,4,VCC*%
%TO.N,+3.3V*%
X176550000Y-97699500D03*
D20*
%TO.P,U1,5,PA4*%
%TO.N,ATTiny416_PA4*%
X176550000Y-98099500D03*
D21*
%TO.P,U1,6,PA5*%
%TO.N,ATTiny416_PA5*%
X177200000Y-98749500D03*
D22*
%TO.P,U1,7,PA6*%
%TO.N,ATTiny416_PA6*%
X177600000Y-98749500D03*
%TO.P,U1,8,PA7*%
%TO.N,ATTiny416_PA7*%
X178000000Y-98749500D03*
%TO.P,U1,9,PB5*%
%TO.N,ATTiny416_PB5*%
X178400000Y-98749500D03*
D23*
%TO.P,U1,10,PB4*%
%TO.N,ATTiny416_PB4*%
X178800000Y-98749500D03*
D24*
%TO.P,U1,11,PB3*%
%TO.N,/ATTiny416/TOSC1*%
X179450000Y-98099500D03*
D19*
%TO.P,U1,12,PB2*%
%TO.N,/ATTiny416/TOSC2*%
X179450000Y-97699500D03*
%TO.P,U1,13,PB1*%
%TO.N,ATTiny416_PB1*%
X179450000Y-97299500D03*
%TO.P,U1,14,PB0*%
%TO.N,ATTiny416_PB0*%
X179450000Y-96899500D03*
D25*
%TO.P,U1,15,PC0*%
%TO.N,ATTiny416_SPI_CLK*%
X179450000Y-96499500D03*
D26*
%TO.P,U1,16,PC1*%
%TO.N,ATTiny416_SPI_MISO*%
X178800000Y-95849500D03*
D22*
%TO.P,U1,17,PC2*%
%TO.N,ATTiny416_SPI_MOSI*%
X178400000Y-95849500D03*
%TO.P,U1,18,PC3*%
%TO.N,ATTiny416_SPI_SS*%
X178000000Y-95849500D03*
%TO.P,U1,19,~{RESET}/PA0*%
%TO.N,/ATTiny416/UPDI*%
X177600000Y-95849500D03*
D27*
%TO.P,U1,20,PA1*%
%TO.N,ATTiny416_UART_TX*%
X177200000Y-95849500D03*
D28*
%TO.P,U1,21,GND*%
%TO.N,GND*%
X178000000Y-97299500D03*
%TD*%
D17*
%TO.P,C7,1*%
%TO.N,/USB to UART Conversion/USB_D-*%
X123042500Y-105774500D03*
%TO.P,C7,2*%
%TO.N,GND*%
X123042500Y-103699500D03*
%TD*%
D29*
%TO.P,C4,1*%
%TO.N,+5V_USB*%
X136042500Y-99774500D03*
%TO.P,C4,2*%
%TO.N,GND*%
X133967500Y-99774500D03*
%TD*%
D30*
%TO.P,D1,1,K*%
%TO.N,/USB to UART Conversion/RX_LED*%
X144017500Y-104774500D03*
%TO.P,D1,2,A*%
%TO.N,Net-(D1-A)*%
X146067500Y-104774500D03*
%TD*%
D15*
%TO.P,J3,1,Pin_1*%
%TO.N,GND*%
X171725000Y-86474500D03*
D16*
%TO.P,J3,2,Pin_2*%
%TO.N,ATTiny416_SPI_SS*%
X174265000Y-86474500D03*
%TO.P,J3,3,Pin_3*%
%TO.N,ATTiny416_SPI_CLK*%
X176805000Y-86474500D03*
%TO.P,J3,4,Pin_4*%
%TO.N,ATTiny416_SPI_MOSI*%
X179345000Y-86474500D03*
%TO.P,J3,5,Pin_5*%
%TO.N,ATTiny416_SPI_MISO*%
X181885000Y-86474500D03*
%TO.P,J3,6,Pin_6*%
%TO.N,Net-(J3-Pin_6)*%
X184425000Y-86474500D03*
%TO.P,J3,7,Pin_7*%
%TO.N,Net-(J3-Pin_7)*%
X186965000Y-86474500D03*
%TD*%
D31*
%TO.P,R13,1*%
%TO.N,Net-(D4-Pad3)*%
X132725000Y-82574500D03*
%TO.P,R13,2*%
%TO.N,+30V*%
X130725000Y-82574500D03*
%TD*%
D32*
%TO.P,C11,1*%
%TO.N,GND*%
X153475000Y-77849500D03*
%TO.P,C11,2*%
%TO.N,/Power/IDEAL_CATHODE*%
X153475000Y-74724500D03*
%TD*%
D33*
%TO.P,R3,1*%
%TO.N,Net-(D1-A)*%
X148042500Y-104774500D03*
%TO.P,R3,2*%
%TO.N,FT230_VCCIO_SOURCE*%
X150042500Y-104774500D03*
%TD*%
D34*
%TO.P,D4,1*%
%TO.N,Net-(D4-Pad1)*%
X141575000Y-78274500D03*
%TO.P,D4,2*%
%TO.N,unconnected-(D4-Pad2)*%
X141575000Y-80574500D03*
%TO.P,D4,3*%
%TO.N,Net-(D4-Pad3)*%
X141575000Y-82874500D03*
D35*
%TO.P,D4,4*%
%TO.N,/Power/IDEAL_CATHODE*%
X147875000Y-80574500D03*
%TD*%
D36*
%TO.P,R10,1*%
%TO.N,+3.3V*%
X171850000Y-74999500D03*
%TO.P,R10,2*%
%TO.N,Net-(J3-Pin_6)*%
X171850000Y-76999500D03*
%TD*%
D37*
%TO.P,C8,1*%
%TO.N,/USB to UART Conversion/USB_D+*%
X123042500Y-108124500D03*
%TO.P,C8,2*%
%TO.N,GND*%
X123042500Y-110199500D03*
%TD*%
D38*
%TO.P,U2,1,TXD*%
%TO.N,Net-(U2-TXD)*%
X133820000Y-109374500D03*
%TO.P,U2,2,~{RTS}*%
%TO.N,unconnected-(U2-~{RTS}-Pad2)*%
X134455000Y-109374500D03*
%TO.P,U2,3,VCCIO*%
%TO.N,FT230_VCCIO_SOURCE*%
X135090000Y-109374500D03*
%TO.P,U2,4,RXD*%
%TO.N,Net-(U2-RXD)*%
X135725000Y-109374500D03*
%TO.P,U2,5,GND*%
%TO.N,GND*%
X136360000Y-109374500D03*
%TO.P,U2,6,~{CTS}*%
%TO.N,unconnected-(U2-~{CTS}-Pad6)*%
X136995000Y-109374500D03*
%TO.P,U2,7,CBUS2*%
%TO.N,/USB to UART Conversion/TX_LED*%
X137630000Y-109374500D03*
%TO.P,U2,8,USBDP*%
%TO.N,/USB to UART Conversion/USB_D_TERM+*%
X138265000Y-109374500D03*
%TO.P,U2,9,USBDM*%
%TO.N,/USB to UART Conversion/USB_D_TERM-*%
X138265000Y-104174500D03*
%TO.P,U2,10,3V3OUT*%
%TO.N,FT230_3V3OUT*%
X137630000Y-104174500D03*
%TO.P,U2,11,~{RESET}*%
X136995000Y-104174500D03*
%TO.P,U2,12,VCC*%
%TO.N,+5V_USB*%
X136360000Y-104174500D03*
%TO.P,U2,13,GND*%
%TO.N,GND*%
X135725000Y-104174500D03*
%TO.P,U2,14,CBUS1*%
%TO.N,/USB to UART Conversion/RX_LED*%
X135090000Y-104174500D03*
%TO.P,U2,15,CBUS0*%
%TO.N,unconnected-(U2-CBUS0-Pad15)*%
X134455000Y-104174500D03*
%TO.P,U2,16,CBUS3*%
%TO.N,unconnected-(U2-CBUS3-Pad16)*%
X133820000Y-104174500D03*
%TD*%
D39*
%TO.P,R19,1*%
%TO.N,Net-(D5-A)*%
X167050000Y-76999500D03*
%TO.P,R19,2*%
%TO.N,+3.3V*%
X167050000Y-74999500D03*
%TD*%
D15*
%TO.P,J1,1,Pin_1*%
%TO.N,unconnected-(J1-Pin_1-Pad1)*%
X160805000Y-90474500D03*
D16*
%TO.P,J1,2,Pin_2*%
%TO.N,+3.3V*%
X163345000Y-90474500D03*
%TO.P,J1,3,Pin_3*%
%TO.N,GND*%
X165885000Y-90474500D03*
%TO.P,J1,4,Pin_4*%
%TO.N,/ATTiny416/UPDI*%
X168425000Y-90474500D03*
%TD*%
D40*
%TO.P,C3,1*%
%TO.N,/ATTiny416/TOSC1*%
X188400000Y-98899500D03*
%TO.P,C3,2*%
%TO.N,GND*%
X190475000Y-98899500D03*
%TD*%
D41*
%TO.P,F1,1*%
%TO.N,+5V_USB*%
X136042500Y-96774500D03*
%TO.P,F1,2*%
%TO.N,Net-(JP1-B)*%
X133242500Y-96774500D03*
%TD*%
D36*
%TO.P,R12,1*%
%TO.N,+3.3V*%
X177250000Y-75099500D03*
%TO.P,R12,2*%
%TO.N,ATTiny416_SPI_SS*%
X177250000Y-77099500D03*
%TD*%
D33*
%TO.P,R17,1*%
%TO.N,+5V_USB*%
X130725000Y-88574500D03*
%TO.P,R17,2*%
%TO.N,/Power/IDEAL_ANODE*%
X132725000Y-88574500D03*
%TD*%
D42*
%TO.P,D5,1,K*%
%TO.N,GND*%
X167050000Y-81124500D03*
%TO.P,D5,2,A*%
%TO.N,Net-(D5-A)*%
X167050000Y-79074500D03*
%TD*%
D43*
%TO.P,TP2,1,1*%
%TO.N,+5V_USB*%
X141042500Y-96774500D03*
%TD*%
D33*
%TO.P,R18,1*%
%TO.N,Net-(D3-A)*%
X167700000Y-107274500D03*
%TO.P,R18,2*%
%TO.N,+3.3V*%
X169700000Y-107274500D03*
%TD*%
D29*
%TO.P,C6,1*%
%TO.N,+5V_USB*%
X136042500Y-101774500D03*
%TO.P,C6,2*%
%TO.N,GND*%
X133967500Y-101774500D03*
%TD*%
D17*
%TO.P,C12,1*%
%TO.N,GND*%
X162475000Y-76762000D03*
%TO.P,C12,2*%
%TO.N,+3.3V*%
X162475000Y-74687000D03*
%TD*%
D33*
%TO.P,R7,1*%
%TO.N,+5V_USB*%
X130725000Y-79574500D03*
%TO.P,R7,2*%
%TO.N,Net-(D4-Pad1)*%
X132725000Y-79574500D03*
%TD*%
D29*
%TO.P,C10,1*%
%TO.N,+3.3V*%
X183262500Y-77174500D03*
%TO.P,C10,2*%
%TO.N,GND*%
X181187500Y-77174500D03*
%TD*%
D33*
%TO.P,R9,1*%
%TO.N,Net-(U2-RXD)*%
X154725000Y-112574500D03*
%TO.P,R9,2*%
%TO.N,ATTiny416_UART_TX*%
X156725000Y-112574500D03*
%TD*%
D36*
%TO.P,R11,1*%
%TO.N,+3.3V*%
X186250000Y-75099500D03*
%TO.P,R11,2*%
%TO.N,Net-(J3-Pin_7)*%
X186250000Y-77099500D03*
%TD*%
D33*
%TO.P,R8,1*%
%TO.N,Net-(U2-TXD)*%
X154725000Y-109574500D03*
%TO.P,R8,2*%
%TO.N,ATTiny416_UART_RX*%
X156725000Y-109574500D03*
%TD*%
%TO.P,R5,1*%
%TO.N,/USB to UART Conversion/USB_D-*%
X127042500Y-105774500D03*
%TO.P,R5,2*%
%TO.N,/USB to UART Conversion/USB_D_TERM-*%
X129042500Y-105774500D03*
%TD*%
D44*
%TO.P,U6,1,IN*%
%TO.N,/Power/IDEAL_CATHODE*%
X157337500Y-74774500D03*
%TO.P,U6,2,NC*%
%TO.N,unconnected-(U6-NC-Pad2)*%
X157337500Y-75724500D03*
%TO.P,U6,3,GND*%
%TO.N,GND*%
X157337500Y-76674500D03*
%TO.P,U6,4,GND__1*%
X159612500Y-76674500D03*
%TO.P,U6,5,OUT*%
%TO.N,+3.3V*%
X159612500Y-74774500D03*
%TD*%
D43*
%TO.P,TP3,1,1*%
%TO.N,Net-(U3-BIAS)*%
X152975000Y-102074500D03*
%TD*%
D31*
%TO.P,R1,1*%
%TO.N,+3.3V*%
X141042500Y-116774500D03*
%TO.P,R1,2*%
%TO.N,FT230_VCCIO_SOURCE*%
X139042500Y-116774500D03*
%TD*%
D45*
%TO.P,J4,1,Pin_1*%
%TO.N,GND*%
X115725000Y-81374500D03*
D46*
%TO.P,J4,2,Pin_2*%
%TO.N,+30V*%
X115725000Y-76294500D03*
%TD*%
D47*
%TO.P,JP1,1,A*%
%TO.N,Net-(J2-VCC)*%
X127742500Y-93774500D03*
D48*
%TO.P,JP1,2,B*%
%TO.N,Net-(JP1-B)*%
X129042500Y-93774500D03*
%TD*%
D49*
%TO.P,U4,*%
%TO.N,*%
X182198500Y-79551000D03*
D50*
%TO.P,U4,1,~{CS}*%
%TO.N,ATTiny416_SPI_SS*%
X180898500Y-78801000D03*
%TO.P,U4,2,DO(IO1)*%
%TO.N,ATTiny416_SPI_MISO*%
X180898500Y-79301000D03*
%TO.P,U4,3,~{WP}*%
%TO.N,Net-(J3-Pin_6)*%
X180898500Y-79801000D03*
%TO.P,U4,4,GND*%
%TO.N,GND*%
X180898500Y-80301000D03*
%TO.P,U4,5,DI(IO0)*%
%TO.N,ATTiny416_SPI_MOSI*%
X183498500Y-80301000D03*
%TO.P,U4,6,CLK*%
%TO.N,ATTiny416_SPI_CLK*%
X183498500Y-79801000D03*
%TO.P,U4,7,~{HOLD}*%
%TO.N,Net-(J3-Pin_7)*%
X183498500Y-79301000D03*
%TO.P,U4,8,VCC*%
%TO.N,+3.3V*%
X183498500Y-78801000D03*
%TD*%
D15*
%TO.P,J6,1,Pin_1*%
%TO.N,GND*%
X199725000Y-105194500D03*
D16*
%TO.P,J6,2,Pin_2*%
%TO.N,ATTiny416_PB5*%
X199725000Y-102654500D03*
%TO.P,J6,3,Pin_3*%
%TO.N,ATTiny416_PB4*%
X199725000Y-100114500D03*
%TO.P,J6,4,Pin_4*%
%TO.N,ATTiny416_PB1*%
X199725000Y-97574500D03*
%TO.P,J6,5,Pin_5*%
%TO.N,ATTiny416_PB0*%
X199725000Y-95034500D03*
%TO.P,J6,6,Pin_6*%
%TO.N,+3.3V*%
X199725000Y-92494500D03*
%TD*%
D33*
%TO.P,R14,1*%
%TO.N,+5V_USB*%
X130725000Y-85574500D03*
%TO.P,R14,2*%
%TO.N,/Power/IDEAL_CATHODE*%
X132725000Y-85574500D03*
%TD*%
D51*
%TO.P,U3,1,NC*%
%TO.N,unconnected-(U3-NC-Pad1)*%
X152075500Y-92894500D03*
%TO.P,U3,2,REF*%
%TO.N,Net-(U3-REF)*%
X152725500Y-92894500D03*
%TO.P,U3,3,BIAS*%
%TO.N,Net-(U3-BIAS)*%
X153375500Y-92894500D03*
%TO.P,U3,4,SOURCE*%
%TO.N,/Power/IDEAL_CATHODE*%
X153375500Y-90234500D03*
%TO.P,U3,5,NC*%
%TO.N,unconnected-(U3-NC-Pad5)*%
X152725500Y-90234500D03*
%TO.P,U3,6,DRAIN*%
%TO.N,/Power/IDEAL_ANODE*%
X152075500Y-90234500D03*
%TD*%
D30*
%TO.P,D3,1,K*%
%TO.N,Net-(D3-K)*%
X163300000Y-107274500D03*
%TO.P,D3,2,A*%
%TO.N,Net-(D3-A)*%
X165350000Y-107274500D03*
%TD*%
D43*
%TO.P,TP1,1,1*%
%TO.N,FT230_3V3OUT*%
X148725000Y-114774500D03*
%TD*%
D40*
%TO.P,C9,1*%
%TO.N,Net-(J2-VCC)*%
X127042500Y-99774500D03*
%TO.P,C9,2*%
%TO.N,GND*%
X129117500Y-99774500D03*
%TD*%
D30*
%TO.P,D2,1,K*%
%TO.N,/USB to UART Conversion/TX_LED*%
X144017500Y-107774500D03*
%TO.P,D2,2,A*%
%TO.N,Net-(D2-A)*%
X146067500Y-107774500D03*
%TD*%
D36*
%TO.P,R15,1*%
%TO.N,Net-(U3-REF)*%
X151725500Y-95564500D03*
%TO.P,R15,2*%
%TO.N,GND*%
X151725500Y-97564500D03*
%TD*%
D43*
%TO.P,TP4,1,1*%
%TO.N,/Power/IDEAL_CATHODE*%
X147725000Y-74574500D03*
%TD*%
D36*
%TO.P,R16,1*%
%TO.N,Net-(U3-BIAS)*%
X154725500Y-95564500D03*
%TO.P,R16,2*%
%TO.N,GND*%
X154725500Y-97564500D03*
%TD*%
D15*
%TO.P,J7,1,Pin_1*%
%TO.N,GND*%
X184345000Y-116574500D03*
D16*
%TO.P,J7,2,Pin_2*%
%TO.N,ATTiny416_PA7*%
X181805000Y-116574500D03*
%TO.P,J7,3,Pin_3*%
%TO.N,ATTiny416_PA6*%
X179265000Y-116574500D03*
%TO.P,J7,4,Pin_4*%
%TO.N,ATTiny416_PA5*%
X176725000Y-116574500D03*
%TO.P,J7,5,Pin_5*%
%TO.N,ATTiny416_PA4*%
X174185000Y-116574500D03*
%TO.P,J7,6,Pin_6*%
%TO.N,+3.3V*%
X171645000Y-116574500D03*
%TD*%
D40*
%TO.P,C5,1*%
%TO.N,FT230_3V3OUT*%
X137942500Y-101774500D03*
%TO.P,C5,2*%
%TO.N,GND*%
X140017500Y-101774500D03*
%TD*%
%TO.P,C2,1*%
%TO.N,/ATTiny416/TOSC2*%
X188400000Y-96599500D03*
%TO.P,C2,2*%
%TO.N,GND*%
X190475000Y-96599500D03*
%TD*%
D33*
%TO.P,R4,1*%
%TO.N,Net-(D2-A)*%
X148042500Y-107774500D03*
%TO.P,R4,2*%
%TO.N,FT230_VCCIO_SOURCE*%
X150042500Y-107774500D03*
%TD*%
%TO.P,R6,1*%
%TO.N,/USB to UART Conversion/USB_D+*%
X127042500Y-107774500D03*
%TO.P,R6,2*%
%TO.N,/USB to UART Conversion/USB_D_TERM+*%
X129042500Y-107774500D03*
%TD*%
D52*
%TO.P,FB1,1*%
%TO.N,Net-(JP1-B)*%
X130142500Y-96774500D03*
%TO.P,FB1,2*%
%TO.N,Net-(J2-VCC)*%
X127042500Y-96774500D03*
%TD*%
D31*
%TO.P,R2,1*%
%TO.N,FT230_3V3OUT*%
X141042500Y-114774500D03*
%TO.P,R2,2*%
%TO.N,FT230_VCCIO_SOURCE*%
X139042500Y-114774500D03*
%TD*%
D53*
%TO.N,+3.3V*%
X153250000Y-118599500D03*
X144250000Y-117099500D03*
%TO.N,GND*%
X192025000Y-97474500D03*
X181225000Y-75674500D03*
X129142500Y-101374500D03*
X191575000Y-100324500D03*
X192025000Y-98874500D03*
X158725000Y-78224500D03*
X183725000Y-99874500D03*
X178000000Y-97299500D03*
X120642500Y-109674500D03*
X182725000Y-95674500D03*
X188325000Y-100474500D03*
X124542500Y-103674500D03*
X124342500Y-110174500D03*
X161725000Y-78224500D03*
X156225000Y-97564500D03*
X160225000Y-78224500D03*
X191125000Y-94974500D03*
X189925000Y-100474500D03*
X182025000Y-99874500D03*
X186725000Y-95274500D03*
X163225000Y-78224500D03*
X150225000Y-97564500D03*
X157225000Y-78224500D03*
X192025000Y-96074500D03*
X136375000Y-107854500D03*
X155725000Y-78224500D03*
X186875000Y-100324500D03*
X158975000Y-75724500D03*
X167050000Y-82699500D03*
X189525000Y-94974500D03*
X184025000Y-95574500D03*
X141242500Y-101774500D03*
X155725000Y-76974500D03*
X180750000Y-81099500D03*
X181230000Y-98724500D03*
X185325000Y-99874500D03*
X188125000Y-94974500D03*
X133942500Y-98474500D03*
X185425000Y-95574500D03*
X134742500Y-105574500D03*
X159975000Y-75724500D03*
X120642500Y-108874500D03*
X119842500Y-109674500D03*
X160975000Y-76974500D03*
X182125000Y-96274500D03*
%TO.N,+5V_USB*%
X141749750Y-90549750D03*
X144725000Y-81574500D03*
%TO.N,FT230_3V3OUT*%
X141042500Y-111674500D03*
X142142500Y-103274500D03*
%TO.N,/USB to UART Conversion/RX_LED*%
X135435460Y-103031836D03*
X139142500Y-103074500D03*
%TO.N,ATTiny416_SPI_MOSI*%
X182750000Y-83599500D03*
X179425000Y-84074500D03*
%TO.N,ATTiny416_SPI_CLK*%
X181350000Y-92199500D03*
X179325000Y-83099500D03*
X182750000Y-82599500D03*
X178450000Y-92299500D03*
%TO.N,Net-(J3-Pin_6)*%
X176750000Y-79599500D03*
X179750000Y-80099500D03*
%TO.N,/Power/IDEAL_CATHODE*%
X154675000Y-90225000D03*
X155675000Y-86574500D03*
%TO.N,GND*%
X118242500Y-109674500D03*
X119042500Y-109674500D03*
%TD*%
D54*
%TO.N,+5V_USB*%
X138725000Y-92574500D02*
X136042500Y-95257000D01*
X141749750Y-90549750D02*
X139725000Y-92574500D01*
X136042500Y-95257000D02*
X136042500Y-96774500D01*
X139725000Y-92574500D02*
X138725000Y-92574500D01*
%TO.N,+3.3V*%
X153250000Y-118599500D02*
X169250000Y-118599500D01*
X199725000Y-88574500D02*
X203250000Y-92099500D01*
X199725000Y-88574500D02*
X199725000Y-92494500D01*
X162475000Y-74687000D02*
X183250000Y-74687000D01*
X168750000Y-113099500D02*
X169700000Y-112149500D01*
D55*
X173400000Y-99174500D02*
X174875000Y-97699500D01*
D54*
X171750000Y-108049500D02*
X171750000Y-100824500D01*
X173750000Y-118599500D02*
X169250000Y-118599500D01*
X183250000Y-74687000D02*
X183250000Y-75599500D01*
X141367500Y-117099500D02*
X141042500Y-116774500D01*
X169700000Y-110099500D02*
X171750000Y-108049500D01*
X163345000Y-90474500D02*
X164725000Y-89094500D01*
X203250000Y-92099500D02*
X203250000Y-107099500D01*
X188837500Y-74687000D02*
X199725000Y-85574500D01*
X173750000Y-118599500D02*
X173670000Y-118599500D01*
X173670000Y-118599500D02*
X171645000Y-116574500D01*
X171750000Y-100824500D02*
X173400000Y-99174500D01*
X144250000Y-117099500D02*
X141367500Y-117099500D01*
X183262500Y-75612000D02*
X183262500Y-77174500D01*
D56*
X183262500Y-78565000D02*
X183498500Y-78801000D01*
D54*
X203250000Y-107099500D02*
X191750000Y-118599500D01*
D55*
X174875000Y-97699500D02*
X176550000Y-97699500D01*
D54*
X164725000Y-89094500D02*
X164725000Y-76937000D01*
X169250000Y-118599500D02*
X168750000Y-118099500D01*
X169700000Y-112149500D02*
X169700000Y-110099500D01*
X169700000Y-110099500D02*
X169700000Y-107274500D01*
X191750000Y-118599500D02*
X173750000Y-118599500D01*
X183250000Y-74687000D02*
X188837500Y-74687000D01*
X168750000Y-118099500D02*
X168750000Y-113099500D01*
X183250000Y-75599500D02*
X183262500Y-75612000D01*
X164725000Y-76937000D02*
X162475000Y-74687000D01*
D56*
X183262500Y-77174500D02*
X183262500Y-78565000D01*
D57*
X173400000Y-99174500D02*
X174025000Y-99174500D01*
D54*
X199725000Y-85574500D02*
X199725000Y-88574500D01*
D56*
%TO.N,GND*%
X181187500Y-75712000D02*
X181225000Y-75674500D01*
X123042500Y-110199500D02*
X124317500Y-110199500D01*
D55*
X190475000Y-98899500D02*
X192000000Y-98899500D01*
D54*
X191325000Y-94974500D02*
X191125000Y-94974500D01*
D56*
X136360000Y-107869500D02*
X136375000Y-107854500D01*
X156225000Y-97564500D02*
X154725500Y-97564500D01*
X129117500Y-99774500D02*
X129117500Y-101349500D01*
D54*
X181925000Y-99874500D02*
X182025000Y-99874500D01*
D56*
X181187500Y-77174500D02*
X181187500Y-75712000D01*
D55*
X180750000Y-81099500D02*
X180898500Y-80951000D01*
D54*
X181230000Y-99179500D02*
X181925000Y-99874500D01*
D56*
X124317500Y-110199500D02*
X124342500Y-110174500D01*
X140017500Y-101774500D02*
X141242500Y-101774500D01*
D54*
X191425000Y-100474500D02*
X191575000Y-100324500D01*
X133967500Y-99774500D02*
X133967500Y-98499500D01*
D55*
X190475000Y-96599500D02*
X192025000Y-96599500D01*
X173600000Y-97299500D02*
X176550000Y-97299500D01*
D54*
X192025000Y-99874500D02*
X192025000Y-98874500D01*
X187425000Y-94974500D02*
X187025000Y-94974500D01*
X185325000Y-99874500D02*
X186425000Y-99874500D01*
X186875000Y-100324500D02*
X187025000Y-100474500D01*
X191575000Y-100324500D02*
X192025000Y-99874500D01*
X187025000Y-100474500D02*
X187925000Y-100474500D01*
X133967500Y-101774500D02*
X133967500Y-99774500D01*
D56*
X123042500Y-103699500D02*
X124517500Y-103699500D01*
D54*
X186725000Y-95274500D02*
X186425000Y-95574500D01*
D56*
X124517500Y-103699500D02*
X124542500Y-103674500D01*
D54*
X192025000Y-98874500D02*
X192025000Y-97474500D01*
D55*
X180898500Y-80951000D02*
X180898500Y-80301000D01*
D56*
X135725000Y-104174500D02*
X135725000Y-105074500D01*
D55*
X173400000Y-97099500D02*
X173600000Y-97299500D01*
D56*
X135725000Y-105074500D02*
X135225000Y-105574500D01*
D54*
X189925000Y-100474500D02*
X191425000Y-100474500D01*
X191625000Y-95274500D02*
X191325000Y-94974500D01*
X192025000Y-96074500D02*
X192025000Y-95674500D01*
D56*
X167050000Y-81124500D02*
X167050000Y-82699500D01*
D54*
X192025000Y-95674500D02*
X191625000Y-95274500D01*
D55*
X192000000Y-98899500D02*
X192025000Y-98874500D01*
D56*
X150225000Y-97564500D02*
X151725500Y-97564500D01*
D54*
X182725000Y-95674500D02*
X182125000Y-96274500D01*
X185425000Y-95574500D02*
X184025000Y-95574500D01*
D55*
X176550000Y-97299500D02*
X178000000Y-97299500D01*
D54*
X133967500Y-98499500D02*
X133942500Y-98474500D01*
X181230000Y-98724500D02*
X181230000Y-99179500D01*
X188325000Y-100474500D02*
X189925000Y-100474500D01*
X188125000Y-94974500D02*
X187425000Y-94974500D01*
X192025000Y-96599500D02*
X192025000Y-96074500D01*
X191125000Y-94974500D02*
X189525000Y-94974500D01*
X184025000Y-95574500D02*
X182825000Y-95574500D01*
X182825000Y-95574500D02*
X182725000Y-95674500D01*
X189525000Y-94974500D02*
X188125000Y-94974500D01*
X186425000Y-99874500D02*
X186875000Y-100324500D01*
D56*
X129117500Y-101349500D02*
X129142500Y-101374500D01*
D54*
X187925000Y-100474500D02*
X188325000Y-100474500D01*
X186425000Y-95574500D02*
X185425000Y-95574500D01*
D56*
X135225000Y-105574500D02*
X134742500Y-105574500D01*
D54*
X187025000Y-94974500D02*
X186725000Y-95274500D01*
X192025000Y-97474500D02*
X192025000Y-96599500D01*
D56*
X136360000Y-109374500D02*
X136360000Y-107869500D01*
D54*
X183725000Y-99874500D02*
X185325000Y-99874500D01*
X182025000Y-99874500D02*
X183725000Y-99874500D01*
D57*
%TO.N,/ATTiny416/TOSC2*%
X186700000Y-96599500D02*
X188400000Y-96599500D01*
X186300000Y-96999500D02*
X186700000Y-96599500D01*
X181500000Y-97699500D02*
X182200000Y-96999500D01*
X182200000Y-96999500D02*
X183600000Y-96999500D01*
X179450000Y-97699500D02*
X181500000Y-97699500D01*
X183600000Y-96999500D02*
X186300000Y-96999500D01*
%TO.N,/ATTiny416/TOSC1*%
X183600000Y-98499500D02*
X186300000Y-98499500D01*
X186700000Y-98899500D02*
X188400000Y-98899500D01*
X179450000Y-98099500D02*
X181500000Y-98099500D01*
X186300000Y-98499500D02*
X186700000Y-98899500D01*
X181900000Y-98499500D02*
X183600000Y-98499500D01*
X181500000Y-98099500D02*
X181900000Y-98499500D01*
D54*
%TO.N,+5V_USB*%
X131725000Y-75574500D02*
X130725000Y-76574500D01*
X141041726Y-75574500D02*
X131725000Y-75574500D01*
X144725000Y-79257774D02*
X141041726Y-75574500D01*
X130725000Y-85574500D02*
X130725000Y-88574500D01*
X136042500Y-96774500D02*
X136042500Y-101774500D01*
X130725000Y-76574500D02*
X130725000Y-79574500D01*
D56*
X136360000Y-102092000D02*
X136042500Y-101774500D01*
D54*
X130725000Y-88574500D02*
X130725000Y-91457000D01*
X144725000Y-81574500D02*
X144725000Y-79257774D01*
X131783750Y-92515750D02*
X136042500Y-96774500D01*
X136042500Y-96774500D02*
X141042500Y-96774500D01*
D56*
X136360000Y-104174500D02*
X136360000Y-102092000D01*
D54*
X130725000Y-91457000D02*
X131783750Y-92515750D01*
D56*
%TO.N,FT230_3V3OUT*%
X141042500Y-114774500D02*
X148725000Y-114774500D01*
X142142500Y-101684550D02*
X140922450Y-100464500D01*
X142142500Y-103274500D02*
X142142500Y-101684550D01*
X136995000Y-103472000D02*
X137350000Y-103117000D01*
X141042500Y-111674500D02*
X141042500Y-114774500D01*
X137952500Y-102794500D02*
X137942500Y-102784500D01*
X137350000Y-103117000D02*
X137630000Y-103117000D01*
X138322500Y-100464500D02*
X137942500Y-100844500D01*
X148525000Y-114774500D02*
X148725000Y-114574500D01*
X137630000Y-104174500D02*
X137630000Y-103117000D01*
X140922450Y-100464500D02*
X138322500Y-100464500D01*
X137630000Y-103117000D02*
X137952500Y-102794500D01*
X136995000Y-104174500D02*
X136995000Y-103472000D01*
X137942500Y-102784500D02*
X137942500Y-101774500D01*
X137942500Y-100844500D02*
X137942500Y-101774500D01*
D55*
%TO.N,/USB to UART Conversion/USB_D-*%
X122042500Y-106649500D02*
X123042500Y-106649500D01*
X126167500Y-106649500D02*
X127042500Y-105774500D01*
X123042500Y-106649500D02*
X126167500Y-106649500D01*
X120017501Y-106649500D02*
X122042500Y-106649500D01*
X118492500Y-106474500D02*
X119842501Y-106474500D01*
X119842501Y-106474500D02*
X120017501Y-106649500D01*
X123042500Y-105774500D02*
X123042500Y-106649500D01*
%TO.N,/USB to UART Conversion/USB_D+*%
X119842501Y-107274500D02*
X120017501Y-107099500D01*
X126717500Y-107774500D02*
X127042500Y-107774500D01*
X123042500Y-108124500D02*
X123042500Y-107099500D01*
X122042500Y-107099500D02*
X123042500Y-107099500D01*
X118492500Y-107274500D02*
X119842501Y-107274500D01*
X123042500Y-107099500D02*
X126042500Y-107099500D01*
X126042500Y-107099500D02*
X126717500Y-107774500D01*
X120017501Y-107099500D02*
X122042500Y-107099500D01*
D54*
%TO.N,Net-(J2-VCC)*%
X120142500Y-105674500D02*
X121042500Y-104774500D01*
X127042500Y-96774500D02*
X127042500Y-94474500D01*
X126042500Y-96774500D02*
X127042500Y-96774500D01*
X121042500Y-104774500D02*
X121042500Y-101774500D01*
X121042500Y-101774500D02*
X126042500Y-96774500D01*
X118492500Y-105674500D02*
X120142500Y-105674500D01*
X127042500Y-99774500D02*
X127042500Y-96774500D01*
X127042500Y-94474500D02*
X127742500Y-93774500D01*
D55*
%TO.N,/USB to UART Conversion/RX_LED*%
X139342500Y-103074500D02*
X139142500Y-103074500D01*
X135435460Y-103031836D02*
X135090000Y-103377296D01*
X135090000Y-103377296D02*
X135090000Y-104174500D01*
X141842500Y-104774500D02*
X144017500Y-104774500D01*
X140042500Y-103774500D02*
X139342500Y-103074500D01*
X141842500Y-104774500D02*
X141042500Y-104774500D01*
X141042500Y-104774500D02*
X140042500Y-103774500D01*
%TO.N,Net-(D1-A)*%
X146067500Y-104774500D02*
X148042500Y-104774500D01*
%TO.N,/USB to UART Conversion/TX_LED*%
X144017500Y-107774500D02*
X142642500Y-107774500D01*
X139742500Y-110674500D02*
X138130000Y-110674500D01*
X142642500Y-107774500D02*
X139742500Y-110674500D01*
X137630000Y-110174500D02*
X137630000Y-109374500D01*
X138130000Y-110674500D02*
X137630000Y-110174500D01*
%TO.N,Net-(D2-A)*%
X146067500Y-107774500D02*
X148042500Y-107774500D01*
%TO.N,Net-(D3-K)*%
X163300000Y-107274500D02*
X163300000Y-103999500D01*
X171525000Y-95774500D02*
X174625000Y-95774500D01*
X174625000Y-95774500D02*
X175750000Y-96899500D01*
X163300000Y-103999500D02*
X171525000Y-95774500D01*
X175750000Y-96899500D02*
X176550000Y-96899500D01*
D56*
%TO.N,Net-(D3-A)*%
X167850000Y-107174500D02*
X167800000Y-107124500D01*
D55*
X165350000Y-107274500D02*
X167700000Y-107274500D01*
D56*
X167800000Y-107124500D02*
X167650000Y-107124500D01*
D54*
%TO.N,Net-(D4-Pad3)*%
X139725000Y-82574500D02*
X140025000Y-82874500D01*
X140025000Y-82874500D02*
X141575000Y-82874500D01*
X132725000Y-82574500D02*
X139725000Y-82574500D01*
%TO.N,Net-(D4-Pad1)*%
X141575000Y-78274500D02*
X137025000Y-78274500D01*
X135725000Y-79574500D02*
X132725000Y-79574500D01*
X137025000Y-78274500D02*
X135725000Y-79574500D01*
%TO.N,Net-(JP1-B)*%
X130042500Y-94774500D02*
X130042500Y-95774500D01*
X133242500Y-96774500D02*
X130142500Y-96774500D01*
X129042500Y-93774500D02*
X130042500Y-94774500D01*
X130042500Y-95774500D02*
X130142500Y-95874500D01*
X130142500Y-95874500D02*
X130142500Y-96774500D01*
D55*
%TO.N,ATTiny416_SPI_MOSI*%
X184225000Y-82124500D02*
X184225000Y-80474500D01*
X182750000Y-83599500D02*
X184225000Y-82124500D01*
X178400000Y-95199500D02*
X178400000Y-93799500D01*
X178400000Y-93799500D02*
X179345000Y-92854500D01*
D57*
X178400000Y-95849500D02*
X178400000Y-95199500D01*
D55*
X184225000Y-80474500D02*
X184051500Y-80301000D01*
X179345000Y-92854500D02*
X179345000Y-86474500D01*
X179345000Y-86474500D02*
X179345000Y-84154500D01*
X179345000Y-84154500D02*
X179425000Y-84074500D01*
X184051500Y-80301000D02*
X183498500Y-80301000D01*
%TO.N,ATTiny416_SPI_CLK*%
X181350000Y-92199500D02*
X181925000Y-92774500D01*
X182798500Y-80082544D02*
X183080044Y-79801000D01*
X176805000Y-84894500D02*
X176805000Y-86474500D01*
X176805000Y-90654500D02*
X176805000Y-86474500D01*
X180325000Y-96274500D02*
X180100000Y-96499500D01*
X181925000Y-93174500D02*
X180325000Y-94774500D01*
X183080044Y-79801000D02*
X183498500Y-79801000D01*
X179325000Y-83099500D02*
X178600000Y-83099500D01*
X182798500Y-82551000D02*
X182798500Y-80082544D01*
D57*
X179450000Y-96499500D02*
X180100000Y-96499500D01*
D55*
X181925000Y-92774500D02*
X181925000Y-93174500D01*
X178450000Y-92299500D02*
X176805000Y-90654500D01*
X183498500Y-79801000D02*
X183916956Y-79801000D01*
X178600000Y-83099500D02*
X176805000Y-84894500D01*
X180325000Y-94774500D02*
X180325000Y-96274500D01*
X182750000Y-82599500D02*
X182798500Y-82551000D01*
%TO.N,Net-(J3-Pin_6)*%
X171850000Y-78199500D02*
X171850000Y-76999500D01*
X179750000Y-80099500D02*
X180048500Y-79801000D01*
X184425000Y-86474500D02*
X181598500Y-83648000D01*
X181598500Y-80082544D02*
X181316956Y-79801000D01*
X176750000Y-79599500D02*
X173250000Y-79599500D01*
X181598500Y-83648000D02*
X181598500Y-80082544D01*
X181316956Y-79801000D02*
X180898500Y-79801000D01*
X180048500Y-79801000D02*
X180898500Y-79801000D01*
X173250000Y-79599500D02*
X171850000Y-78199500D01*
%TO.N,Net-(J3-Pin_7)*%
X186250000Y-77099500D02*
X184048500Y-79301000D01*
X184048500Y-79301000D02*
X183498500Y-79301000D01*
X183982641Y-79301000D02*
X183498500Y-79301000D01*
X186965000Y-82283359D02*
X183982641Y-79301000D01*
X186965000Y-86474500D02*
X186965000Y-82283359D01*
%TO.N,ATTiny416_SPI_SS*%
X180225000Y-78801000D02*
X180898500Y-78801000D01*
X177250000Y-77099500D02*
X178523500Y-77099500D01*
D57*
X178000000Y-95849500D02*
X178000000Y-95274500D01*
D55*
X179048500Y-78801000D02*
X180225000Y-78801000D01*
X178000000Y-95074500D02*
X178000000Y-93649500D01*
X178523500Y-77099500D02*
X180225000Y-78801000D01*
X174265000Y-83584500D02*
X179048500Y-78801000D01*
X174265000Y-89914500D02*
X174265000Y-86474500D01*
X178000000Y-93649500D02*
X174265000Y-89914500D01*
D57*
X178000000Y-95274500D02*
X178000000Y-95199500D01*
D55*
X174265000Y-86474500D02*
X174265000Y-83584500D01*
D57*
X178000000Y-95274500D02*
X178000000Y-95074500D01*
D55*
%TO.N,ATTiny416_SPI_MISO*%
X178750000Y-80599500D02*
X178750000Y-80081125D01*
X179530125Y-79301000D02*
X180898500Y-79301000D01*
D57*
X178800000Y-95849500D02*
X178800000Y-95199500D01*
D55*
X178750000Y-80081125D02*
X179530125Y-79301000D01*
X180250000Y-84168738D02*
X180250000Y-82099500D01*
X180250000Y-82099500D02*
X178750000Y-80599500D01*
D57*
X178825000Y-95174500D02*
X178800000Y-95199500D01*
D55*
X178800000Y-94699500D02*
X178800000Y-95849500D01*
X180525000Y-92974500D02*
X178800000Y-94699500D01*
X181885000Y-86474500D02*
X181885000Y-88714500D01*
X181885000Y-86474500D02*
X179914619Y-84504119D01*
X180525000Y-90074500D02*
X180525000Y-92974500D01*
X179914619Y-84504119D02*
X180250000Y-84168738D01*
X181885000Y-88714500D02*
X180525000Y-90074500D01*
D54*
%TO.N,+30V*%
X122005000Y-82574500D02*
X115725000Y-76294500D01*
X130725000Y-82574500D02*
X122005000Y-82574500D01*
D55*
%TO.N,ATTiny416_UART_RX*%
X176050000Y-96499500D02*
X176550000Y-96499500D01*
X174525000Y-94974500D02*
X176050000Y-96499500D01*
X161710000Y-113559500D02*
X161710000Y-116599500D01*
X170325000Y-94974500D02*
X174525000Y-94974500D01*
X157725000Y-109574500D02*
X161710000Y-113559500D01*
X157725000Y-109574500D02*
X157725000Y-107574500D01*
X156725000Y-109574500D02*
X157725000Y-109574500D01*
X157725000Y-107574500D02*
X170325000Y-94974500D01*
%TO.N,ATTiny416_UART_TX*%
X155725000Y-107574500D02*
X169325000Y-93974500D01*
X159170000Y-114019500D02*
X159170000Y-116599500D01*
X169325000Y-93974500D02*
X176025000Y-93974500D01*
X157725000Y-112574500D02*
X159170000Y-114019500D01*
X176025000Y-93974500D02*
X177200000Y-95149500D01*
X156825000Y-112474500D02*
X156725000Y-112574500D01*
X177200000Y-95149500D02*
X177200000Y-95849500D01*
X156725000Y-112574500D02*
X157725000Y-112574500D01*
X156725000Y-112574500D02*
X155725000Y-111574500D01*
X155725000Y-111574500D02*
X155725000Y-107574500D01*
%TO.N,ATTiny416_PB0*%
X194385000Y-95034500D02*
X192625000Y-93274500D01*
D57*
X179450000Y-96899500D02*
X180100000Y-96899500D01*
D55*
X180825000Y-95774500D02*
X180825000Y-96874500D01*
X180800000Y-96899500D02*
X179958580Y-96899500D01*
X180825000Y-96874500D02*
X180800000Y-96899500D01*
X199725000Y-95034500D02*
X194385000Y-95034500D01*
X192625000Y-93274500D02*
X183325000Y-93274500D01*
X183325000Y-93274500D02*
X180825000Y-95774500D01*
%TO.N,ATTiny416_PB1*%
X195825000Y-97574500D02*
X195425000Y-97574500D01*
X181225000Y-97174500D02*
X181100000Y-97299500D01*
X181225000Y-96255261D02*
X181225000Y-97174500D01*
X192125000Y-94274500D02*
X183205761Y-94274500D01*
X181100000Y-97299500D02*
X179450000Y-97299500D01*
X183205761Y-94274500D02*
X181225000Y-96255261D01*
X195425000Y-97574500D02*
X192125000Y-94274500D01*
X199725000Y-97574500D02*
X195825000Y-97574500D01*
%TO.N,ATTiny416_PB4*%
X199725000Y-100114500D02*
X198185000Y-100114500D01*
X183825000Y-102974500D02*
X180825000Y-99974500D01*
X198185000Y-100114500D02*
X197125000Y-101174500D01*
D57*
X178800000Y-98749500D02*
X178800000Y-99449500D01*
D55*
X197125000Y-101174500D02*
X192125000Y-101174500D01*
X192125000Y-101174500D02*
X190325000Y-102974500D01*
X178825000Y-99474500D02*
X178825000Y-99449500D01*
X190325000Y-102974500D02*
X183825000Y-102974500D01*
X180825000Y-99974500D02*
X179325000Y-99974500D01*
X179325000Y-99974500D02*
X178825000Y-99474500D01*
D57*
X178825000Y-99474500D02*
X178800000Y-99449500D01*
%TO.N,ATTiny416_PA7*%
X178000000Y-98749500D02*
X178000000Y-99210506D01*
D55*
X178000000Y-99574500D02*
X178000000Y-101849500D01*
D57*
X178000000Y-99574500D02*
X178000000Y-98749500D01*
D55*
X178000000Y-101849500D02*
X181805000Y-105654500D01*
X181805000Y-105654500D02*
X181805000Y-116574500D01*
%TO.N,ATTiny416_PA4*%
X174185000Y-104514500D02*
X174185000Y-116574500D01*
X174825000Y-98974500D02*
X174825000Y-103874500D01*
X175700000Y-98099500D02*
X174825000Y-98974500D01*
X174825000Y-103874500D02*
X174185000Y-104514500D01*
X176550000Y-98099500D02*
X175700000Y-98099500D01*
%TO.N,ATTiny416_PA5*%
X177200000Y-99574500D02*
X177200000Y-99649500D01*
X176125000Y-100724500D02*
X176125000Y-115974500D01*
X177200000Y-99649500D02*
X176125000Y-100724500D01*
D57*
X177200000Y-98749500D02*
X177200000Y-99574500D01*
D55*
X176125000Y-115974500D02*
X176725000Y-116574500D01*
D57*
%TO.N,ATTiny416_PA6*%
X177600000Y-99474500D02*
X177600000Y-98749500D01*
D55*
X177425000Y-103274500D02*
X179225000Y-105074500D01*
X177600000Y-99474500D02*
X177600000Y-99815185D01*
X177425000Y-99990185D02*
X177425000Y-103274500D01*
X177600000Y-99815185D02*
X177425000Y-99990185D01*
X179225000Y-105074500D02*
X179225000Y-116534500D01*
X179225000Y-116534500D02*
X179265000Y-116574500D01*
D56*
%TO.N,FT230_VCCIO_SOURCE*%
X150042500Y-109507000D02*
X150042500Y-104774500D01*
X137033750Y-113765750D02*
X137283750Y-114015750D01*
X139042500Y-115774500D02*
X137033750Y-113765750D01*
X137033750Y-113765750D02*
X135090000Y-111822000D01*
X137283750Y-114015750D02*
X140975000Y-110324500D01*
X139042500Y-114774500D02*
X139042500Y-115774500D01*
X135090000Y-111822000D02*
X135090000Y-109374500D01*
X149225000Y-110324500D02*
X150042500Y-109507000D01*
X140975000Y-110324500D02*
X149225000Y-110324500D01*
X139042500Y-115774500D02*
X139042500Y-116774500D01*
D55*
%TO.N,/USB to UART Conversion/USB_D_TERM-*%
X138265000Y-105327000D02*
X138265000Y-104174500D01*
X129042500Y-105774500D02*
X130092501Y-105774500D01*
X130092501Y-105774500D02*
X130867501Y-106549500D01*
X130867501Y-106549500D02*
X137042500Y-106549500D01*
X137042500Y-106549500D02*
X138265000Y-105327000D01*
%TO.N,/USB to UART Conversion/USB_D_TERM+*%
X129042500Y-107774500D02*
X130092501Y-107774500D01*
X138265000Y-108222000D02*
X138265000Y-109374500D01*
X130867501Y-106999500D02*
X137042500Y-106999500D01*
X137042500Y-106999500D02*
X138265000Y-108222000D01*
X130092501Y-107774500D02*
X130867501Y-106999500D01*
%TO.N,Net-(U2-TXD)*%
X151825000Y-111674500D02*
X153925000Y-109574500D01*
X133542500Y-108274500D02*
X133242500Y-108274500D01*
X133820000Y-108552000D02*
X133542500Y-108274500D01*
X133242500Y-108274500D02*
X131142500Y-110374500D01*
X153925000Y-109574500D02*
X154725000Y-109574500D01*
X149325000Y-118174500D02*
X151825000Y-115674500D01*
X131142500Y-114192000D02*
X135125000Y-118174500D01*
X135125000Y-118174500D02*
X149325000Y-118174500D01*
X133820000Y-109374500D02*
X133820000Y-108552000D01*
X131142500Y-110374500D02*
X131142500Y-114192000D01*
X151825000Y-115674500D02*
X151825000Y-111674500D01*
%TO.N,Net-(U2-RXD)*%
X152725000Y-114574500D02*
X154725000Y-112574500D01*
X130625000Y-110192000D02*
X130625000Y-114774500D01*
X135725000Y-109374500D02*
X135725000Y-108574500D01*
X152725000Y-116174500D02*
X152725000Y-114574500D01*
X134925000Y-107774500D02*
X133042500Y-107774500D01*
X130625000Y-114774500D02*
X134725000Y-118874500D01*
X150025000Y-118874500D02*
X152725000Y-116174500D01*
X135725000Y-108574500D02*
X134925000Y-107774500D01*
X133042500Y-107774500D02*
X130625000Y-110192000D01*
X134725000Y-118874500D02*
X150025000Y-118874500D01*
D56*
%TO.N,Net-(U3-REF)*%
X151725500Y-95114500D02*
X151725500Y-95564500D01*
X152725500Y-94114500D02*
X151725500Y-95114500D01*
X152725500Y-92894500D02*
X152725500Y-94114500D01*
%TO.N,Net-(U3-BIAS)*%
X155425000Y-88475000D02*
X155425000Y-92725000D01*
X153625000Y-87574500D02*
X154524500Y-87574500D01*
X153375500Y-92894500D02*
X153375500Y-94214500D01*
X155425000Y-92725000D02*
X153655500Y-94494500D01*
X152975000Y-102074500D02*
X152975000Y-97315000D01*
X153375500Y-94214500D02*
X153655500Y-94494500D01*
X152975000Y-97315000D02*
X154725500Y-95564500D01*
X153655500Y-94494500D02*
X154725500Y-95564500D01*
X154524500Y-87574500D02*
X155425000Y-88475000D01*
D58*
%TO.N,/Power/IDEAL_CATHODE*%
X147875000Y-80574500D02*
X151725000Y-80574500D01*
D56*
X153375500Y-90234500D02*
X154665500Y-90234500D01*
X154665500Y-90234500D02*
X154675000Y-90225000D01*
D54*
X147725000Y-80424500D02*
X147875000Y-80574500D01*
X153625000Y-85375500D02*
X154476000Y-85375500D01*
X132725000Y-85574500D02*
X142875000Y-85574500D01*
X154225000Y-84775500D02*
X153625000Y-85375500D01*
D58*
X151725000Y-80574500D02*
X154225000Y-83074500D01*
D54*
X154476000Y-85375500D02*
X154675000Y-85574500D01*
D58*
X154225000Y-83074500D02*
X154225000Y-84775500D01*
D54*
X157287500Y-74724500D02*
X157337500Y-74774500D01*
X142875000Y-85574500D02*
X147875000Y-80574500D01*
X154476000Y-85375500D02*
X155675000Y-86574500D01*
%TO.N,/Power/IDEAL_ANODE*%
X140725000Y-88574500D02*
X141725000Y-87574500D01*
X132725000Y-88574500D02*
X140725000Y-88574500D01*
X141725000Y-87574500D02*
X151725000Y-87574500D01*
D55*
%TO.N,/ATTiny416/UPDI*%
X173090686Y-90474500D02*
X177600000Y-94983814D01*
X168425000Y-90474500D02*
X173090686Y-90474500D01*
X177600000Y-94983814D02*
X177600000Y-95199500D01*
D57*
X177600000Y-95849500D02*
X177600000Y-95199500D01*
%TO.N,ATTiny416_PB5*%
X178400000Y-98749500D02*
X178400000Y-99449500D01*
X178400000Y-99449500D02*
X178425000Y-99474500D01*
D55*
X183025000Y-104574500D02*
X178425000Y-99974500D01*
X192645000Y-102654500D02*
X190725000Y-104574500D01*
X178425000Y-99974500D02*
X178425000Y-99474500D01*
X190725000Y-104574500D02*
X183025000Y-104574500D01*
X199725000Y-102654500D02*
X192645000Y-102654500D01*
D56*
%TO.N,Net-(D5-A)*%
X167050000Y-76999500D02*
X167050000Y-79074500D01*
%TD*%
%TA.AperFunction,Conductor*%
%TO.N,+3.3V*%
G36*
X163265677Y-73919185D02*
G01*
X163286319Y-73935819D01*
X163413681Y-74063181D01*
X163447166Y-74124504D01*
X163450000Y-74150862D01*
X163450000Y-75148138D01*
X163430315Y-75215177D01*
X163413681Y-75235819D01*
X163286319Y-75363181D01*
X163224996Y-75396666D01*
X163198638Y-75399500D01*
X161916363Y-75399500D01*
X161849324Y-75379815D01*
X161813189Y-75344283D01*
X161650000Y-75099500D01*
X159001362Y-75099500D01*
X158934323Y-75079815D01*
X158913681Y-75063181D01*
X158786319Y-74935819D01*
X158752834Y-74874496D01*
X158750000Y-74848138D01*
X158750000Y-74150862D01*
X158769685Y-74083823D01*
X158786319Y-74063181D01*
X158913681Y-73935819D01*
X158975004Y-73902334D01*
X159001362Y-73899500D01*
X163198638Y-73899500D01*
X163265677Y-73919185D01*
G37*
%TD.AperFunction*%
%TD*%
%TA.AperFunction,Conductor*%
%TO.N,GND*%
G36*
X121243176Y-108694185D02*
G01*
X121279311Y-108729717D01*
X121421674Y-108943261D01*
X121442482Y-109009960D01*
X121442500Y-109012044D01*
X121442500Y-109823138D01*
X121422815Y-109890177D01*
X121406181Y-109910819D01*
X121278819Y-110038181D01*
X121217496Y-110071666D01*
X121191138Y-110074500D01*
X117908863Y-110074500D01*
X117841824Y-110054815D01*
X117805689Y-110019283D01*
X117666779Y-109810919D01*
X117645971Y-109744220D01*
X117646461Y-109730924D01*
X117732248Y-108787273D01*
X117757922Y-108722291D01*
X117814651Y-108681505D01*
X117855739Y-108674500D01*
X121176137Y-108674500D01*
X121243176Y-108694185D01*
G37*
%TD.AperFunction*%
%TD*%
%TA.AperFunction,Conductor*%
%TO.N,/Power/IDEAL_CATHODE*%
G36*
X157865677Y-73719185D02*
G01*
X157886319Y-73735819D01*
X158013681Y-73863181D01*
X158047166Y-73924504D01*
X158050000Y-73950862D01*
X158050000Y-74948138D01*
X158030315Y-75015177D01*
X158013681Y-75035819D01*
X157886319Y-75163181D01*
X157824996Y-75196666D01*
X157798638Y-75199500D01*
X155049999Y-75199500D01*
X154886319Y-75363181D01*
X154824996Y-75396666D01*
X154798638Y-75399500D01*
X152049999Y-75399500D01*
X149050000Y-77599500D01*
X149050000Y-82348138D01*
X149030315Y-82415177D01*
X149013681Y-82435819D01*
X148886319Y-82563181D01*
X148824996Y-82596666D01*
X148798638Y-82599500D01*
X147001362Y-82599500D01*
X146934323Y-82579815D01*
X146913681Y-82563181D01*
X146786319Y-82435819D01*
X146752834Y-82374496D01*
X146750000Y-82348138D01*
X146750000Y-74350862D01*
X146769685Y-74283823D01*
X146786319Y-74263181D01*
X147313681Y-73735819D01*
X147375004Y-73702334D01*
X147401362Y-73699500D01*
X157798638Y-73699500D01*
X157865677Y-73719185D01*
G37*
%TD.AperFunction*%
%TD*%
%TA.AperFunction,Conductor*%
%TO.N,GND*%
G36*
X160206876Y-75344185D02*
G01*
X160252631Y-75396989D01*
X160255571Y-75403984D01*
X160475000Y-75974500D01*
X163074035Y-75974500D01*
X163141074Y-75994185D01*
X163161716Y-76010819D01*
X163688681Y-76537784D01*
X163722166Y-76599107D01*
X163725000Y-76625465D01*
X163725000Y-78423138D01*
X163705315Y-78490177D01*
X163688681Y-78510819D01*
X163261319Y-78938181D01*
X163199996Y-78971666D01*
X163173638Y-78974500D01*
X152276362Y-78974500D01*
X152209323Y-78954815D01*
X152188681Y-78938181D01*
X151761319Y-78510819D01*
X151727834Y-78449496D01*
X151725000Y-78423138D01*
X151725000Y-76775862D01*
X151744685Y-76708823D01*
X151761319Y-76688181D01*
X152188681Y-76260819D01*
X152250004Y-76227334D01*
X152276362Y-76224500D01*
X156780358Y-76224500D01*
X156789326Y-76224825D01*
X156791739Y-76225000D01*
X156791740Y-76225000D01*
X157883261Y-76225000D01*
X157885674Y-76224825D01*
X157894642Y-76224500D01*
X158225000Y-76224500D01*
X158363889Y-75974500D01*
X158689568Y-75388280D01*
X158739332Y-75339237D01*
X158797963Y-75324500D01*
X160139837Y-75324500D01*
X160206876Y-75344185D01*
G37*
%TD.AperFunction*%
%TD*%
%TA.AperFunction,Conductor*%
%TO.N,/Power/IDEAL_CATHODE*%
G36*
X154740677Y-83594185D02*
G01*
X154761319Y-83610819D01*
X154938681Y-83788181D01*
X154972166Y-83849504D01*
X154975000Y-83875862D01*
X154975000Y-85773138D01*
X154955315Y-85840177D01*
X154938681Y-85860819D01*
X154761319Y-86038181D01*
X154699996Y-86071666D01*
X154673638Y-86074500D01*
X154026362Y-86074500D01*
X153959323Y-86054815D01*
X153938681Y-86038181D01*
X153761319Y-85860819D01*
X153727834Y-85799496D01*
X153725000Y-85773138D01*
X153725000Y-83875862D01*
X153744685Y-83808823D01*
X153761319Y-83788181D01*
X153938681Y-83610819D01*
X154000004Y-83577334D01*
X154026362Y-83574500D01*
X154673638Y-83574500D01*
X154740677Y-83594185D01*
G37*
%TD.AperFunction*%
%TD*%
%TA.AperFunction,Conductor*%
%TO.N,/Power/IDEAL_ANODE*%
G36*
X152618039Y-84744685D02*
G01*
X152663794Y-84797489D01*
X152675000Y-84849000D01*
X152675000Y-88195726D01*
X152661909Y-88251181D01*
X152229736Y-89115525D01*
X152201835Y-89149338D01*
X152202966Y-89150469D01*
X152197219Y-89156215D01*
X152100964Y-89281657D01*
X152040456Y-89427737D01*
X152040455Y-89427739D01*
X152025001Y-89545129D01*
X152025000Y-89545145D01*
X152025001Y-90851000D01*
X152005316Y-90918039D01*
X151952513Y-90963794D01*
X151901001Y-90975000D01*
X151299000Y-90975000D01*
X151231961Y-90955315D01*
X151186206Y-90902511D01*
X151175000Y-90851000D01*
X151175000Y-84849000D01*
X151194685Y-84781961D01*
X151247489Y-84736206D01*
X151299000Y-84725000D01*
X152551000Y-84725000D01*
X152618039Y-84744685D01*
G37*
%TD.AperFunction*%
%TD*%
M02*
