%TF.GenerationSoftware,KiCad,Pcbnew,8.0.7*%
%TF.CreationDate,2025-02-09T15:31:53-05:00*%
%TF.ProjectId,ATTiny_416_Sensor_Board,41545469-6e79-45f3-9431-365f53656e73,rev?*%
%TF.SameCoordinates,Original*%
%TF.FileFunction,Paste,Top*%
%TF.FilePolarity,Positive*%
%FSLAX46Y46*%
G04 Gerber Fmt 4.6, Leading zero omitted, Abs format (unit mm)*
G04 Created by KiCad (PCBNEW 8.0.7) date 2025-02-09 15:31:53*
%MOMM*%
%LPD*%
G01*
G04 APERTURE LIST*
G04 Aperture macros list*
%AMRoundRect*
0 Rectangle with rounded corners*
0 $1 Rounding radius*
0 $2 $3 $4 $5 $6 $7 $8 $9 X,Y pos of 4 corners*
0 Add a 4 corners polygon primitive as box body*
4,1,4,$2,$3,$4,$5,$6,$7,$8,$9,$2,$3,0*
0 Add four circle primitives for the rounded corners*
1,1,$1+$1,$2,$3*
1,1,$1+$1,$4,$5*
1,1,$1+$1,$6,$7*
1,1,$1+$1,$8,$9*
0 Add four rect primitives between the rounded corners*
20,1,$1+$1,$2,$3,$4,$5,0*
20,1,$1+$1,$4,$5,$6,$7,0*
20,1,$1+$1,$6,$7,$8,$9,0*
20,1,$1+$1,$8,$9,$2,$3,0*%
%AMFreePoly0*
4,1,14,0.334644,0.085355,0.385355,0.034644,0.400000,-0.000711,0.400000,-0.050000,0.385355,-0.085355,0.350000,-0.100000,-0.350000,-0.100000,-0.385355,-0.085355,-0.400000,-0.050000,-0.400000,0.050000,-0.385355,0.085355,-0.350000,0.100000,0.299289,0.100000,0.334644,0.085355,0.334644,0.085355,$1*%
%AMFreePoly1*
4,1,14,0.385355,0.085355,0.400000,0.050000,0.400000,0.000711,0.385355,-0.034644,0.334644,-0.085355,0.299289,-0.100000,-0.350000,-0.100000,-0.385355,-0.085355,-0.400000,-0.050000,-0.400000,0.050000,-0.385355,0.085355,-0.350000,0.100000,0.350000,0.100000,0.385355,0.085355,0.385355,0.085355,$1*%
%AMFreePoly2*
4,1,14,0.085355,0.385355,0.100000,0.350000,0.100000,-0.350000,0.085355,-0.385355,0.050000,-0.400000,-0.050000,-0.400000,-0.085355,-0.385355,-0.100000,-0.350000,-0.100000,0.299289,-0.085355,0.334644,-0.034644,0.385355,0.000711,0.400000,0.050000,0.400000,0.085355,0.385355,0.085355,0.385355,$1*%
%AMFreePoly3*
4,1,14,0.034644,0.385355,0.085355,0.334644,0.100000,0.299289,0.100000,-0.350000,0.085355,-0.385355,0.050000,-0.400000,-0.050000,-0.400000,-0.085355,-0.385355,-0.100000,-0.350000,-0.100000,0.350000,-0.085355,0.385355,-0.050000,0.400000,-0.000711,0.400000,0.034644,0.385355,0.034644,0.385355,$1*%
%AMFreePoly4*
4,1,14,0.385355,0.085355,0.400000,0.050000,0.400000,-0.050000,0.385355,-0.085355,0.350000,-0.100000,-0.299289,-0.100000,-0.334644,-0.085355,-0.385355,-0.034644,-0.400000,0.000711,-0.400000,0.050000,-0.385355,0.085355,-0.350000,0.100000,0.350000,0.100000,0.385355,0.085355,0.385355,0.085355,$1*%
%AMFreePoly5*
4,1,14,0.385355,0.085355,0.400000,0.050000,0.400000,-0.050000,0.385355,-0.085355,0.350000,-0.100000,-0.350000,-0.100000,-0.385355,-0.085355,-0.400000,-0.050000,-0.400000,-0.000711,-0.385355,0.034644,-0.334644,0.085355,-0.299289,0.100000,0.350000,0.100000,0.385355,0.085355,0.385355,0.085355,$1*%
%AMFreePoly6*
4,1,14,0.085355,0.385355,0.100000,0.350000,0.100000,-0.299289,0.085355,-0.334644,0.034644,-0.385355,-0.000711,-0.400000,-0.050000,-0.400000,-0.085355,-0.385355,-0.100000,-0.350000,-0.100000,0.350000,-0.085355,0.385355,-0.050000,0.400000,0.050000,0.400000,0.085355,0.385355,0.085355,0.385355,$1*%
%AMFreePoly7*
4,1,14,0.085355,0.385355,0.100000,0.350000,0.100000,-0.350000,0.085355,-0.385355,0.050000,-0.400000,0.000711,-0.400000,-0.034644,-0.385355,-0.085355,-0.334644,-0.100000,-0.299289,-0.100000,0.350000,-0.085355,0.385355,-0.050000,0.400000,0.050000,0.400000,0.085355,0.385355,0.085355,0.385355,$1*%
G04 Aperture macros list end*
%ADD10R,0.700000X1.000000*%
%ADD11R,1.800000X0.600000*%
%ADD12R,2.300000X2.000000*%
%ADD13R,1.000000X0.500000*%
%ADD14RoundRect,0.250000X0.475000X-0.337500X0.475000X0.337500X-0.475000X0.337500X-0.475000X-0.337500X0*%
%ADD15RoundRect,0.172500X-0.172500X-0.172500X0.172500X-0.172500X0.172500X0.172500X-0.172500X0.172500X0*%
%ADD16FreePoly0,0.000000*%
%ADD17RoundRect,0.050000X-0.350000X-0.050000X0.350000X-0.050000X0.350000X0.050000X-0.350000X0.050000X0*%
%ADD18FreePoly1,0.000000*%
%ADD19FreePoly2,0.000000*%
%ADD20RoundRect,0.050000X-0.050000X-0.350000X0.050000X-0.350000X0.050000X0.350000X-0.050000X0.350000X0*%
%ADD21FreePoly3,0.000000*%
%ADD22FreePoly4,0.000000*%
%ADD23FreePoly5,0.000000*%
%ADD24FreePoly6,0.000000*%
%ADD25FreePoly7,0.000000*%
%ADD26RoundRect,0.250000X0.337500X0.475000X-0.337500X0.475000X-0.337500X-0.475000X0.337500X-0.475000X0*%
%ADD27RoundRect,0.250000X-0.325000X-0.450000X0.325000X-0.450000X0.325000X0.450000X-0.325000X0.450000X0*%
%ADD28RoundRect,0.250000X0.350000X0.450000X-0.350000X0.450000X-0.350000X-0.450000X0.350000X-0.450000X0*%
%ADD29RoundRect,0.250000X1.100000X-0.412500X1.100000X0.412500X-1.100000X0.412500X-1.100000X-0.412500X0*%
%ADD30RoundRect,0.250000X-0.350000X-0.450000X0.350000X-0.450000X0.350000X0.450000X-0.350000X0.450000X0*%
%ADD31RoundRect,0.375000X-0.625000X-0.375000X0.625000X-0.375000X0.625000X0.375000X-0.625000X0.375000X0*%
%ADD32RoundRect,0.500000X-0.500000X-1.400000X0.500000X-1.400000X0.500000X1.400000X-0.500000X1.400000X0*%
%ADD33RoundRect,0.250000X-0.450000X0.350000X-0.450000X-0.350000X0.450000X-0.350000X0.450000X0.350000X0*%
%ADD34RoundRect,0.250000X-0.475000X0.337500X-0.475000X-0.337500X0.475000X-0.337500X0.475000X0.337500X0*%
%ADD35R,0.400000X1.200000*%
%ADD36RoundRect,0.250000X0.450000X-0.350000X0.450000X0.350000X-0.450000X0.350000X-0.450000X-0.350000X0*%
%ADD37RoundRect,0.250000X-0.337500X-0.475000X0.337500X-0.475000X0.337500X0.475000X-0.337500X0.475000X0*%
%ADD38RoundRect,0.250000X0.375000X0.625000X-0.375000X0.625000X-0.375000X-0.625000X0.375000X-0.625000X0*%
%ADD39RoundRect,0.250000X0.450000X-0.325000X0.450000X0.325000X-0.450000X0.325000X-0.450000X-0.325000X0*%
%ADD40RoundRect,0.150000X-0.512500X-0.150000X0.512500X-0.150000X0.512500X0.150000X-0.512500X0.150000X0*%
%ADD41RoundRect,0.062500X-0.062500X-0.762500X0.062500X-0.762500X0.062500X0.762500X-0.062500X0.762500X0*%
%ADD42RoundRect,0.100000X-0.300000X-0.050000X0.300000X-0.050000X0.300000X0.050000X-0.300000X0.050000X0*%
%ADD43RoundRect,0.100000X0.100000X-0.650000X0.100000X0.650000X-0.100000X0.650000X-0.100000X-0.650000X0*%
%ADD44RoundRect,0.250000X0.400000X0.625000X-0.400000X0.625000X-0.400000X-0.625000X0.400000X-0.625000X0*%
G04 APERTURE END LIST*
D10*
%TO.C,U5*%
X151725000Y-87574500D03*
X152675000Y-87574500D03*
X153625000Y-87574500D03*
X153625000Y-85375500D03*
X152675000Y-85375500D03*
X151725000Y-85375500D03*
%TD*%
D11*
%TO.C,J2*%
X118492500Y-105674500D03*
X118492500Y-106474500D03*
X118492500Y-107274500D03*
X118492500Y-108074500D03*
X118492500Y-108874500D03*
D12*
X118542500Y-102824500D03*
X118542500Y-111724500D03*
%TD*%
D13*
%TO.C,Y1*%
X183600000Y-98299500D03*
X183600000Y-97199500D03*
%TD*%
D14*
%TO.C,C1*%
X173400000Y-99174500D03*
X173400000Y-97099500D03*
%TD*%
D15*
%TO.C,U1*%
X177575000Y-96874500D03*
X177575000Y-97724500D03*
X178425000Y-96874500D03*
X178425000Y-97724500D03*
D16*
X176550000Y-96499500D03*
D17*
X176550000Y-96899500D03*
X176550000Y-97299500D03*
X176550000Y-97699500D03*
D18*
X176550000Y-98099500D03*
D19*
X177200000Y-98749500D03*
D20*
X177600000Y-98749500D03*
X178000000Y-98749500D03*
X178400000Y-98749500D03*
D21*
X178800000Y-98749500D03*
D22*
X179450000Y-98099500D03*
D17*
X179450000Y-97699500D03*
X179450000Y-97299500D03*
X179450000Y-96899500D03*
D23*
X179450000Y-96499500D03*
D24*
X178800000Y-95849500D03*
D20*
X178400000Y-95849500D03*
X178000000Y-95849500D03*
X177600000Y-95849500D03*
D25*
X177200000Y-95849500D03*
%TD*%
D14*
%TO.C,C7*%
X123042500Y-105774500D03*
X123042500Y-103699500D03*
%TD*%
D26*
%TO.C,C4*%
X136042500Y-99774500D03*
X133967500Y-99774500D03*
%TD*%
D27*
%TO.C,D1*%
X144017500Y-104774500D03*
X146067500Y-104774500D03*
%TD*%
D28*
%TO.C,R13*%
X132725000Y-82574500D03*
X130725000Y-82574500D03*
%TD*%
D29*
%TO.C,C11*%
X153475000Y-77849500D03*
X153475000Y-74724500D03*
%TD*%
D30*
%TO.C,R3*%
X148042500Y-104774500D03*
X150042500Y-104774500D03*
%TD*%
D31*
%TO.C,D4*%
X141575000Y-78274500D03*
X141575000Y-80574500D03*
X141575000Y-82874500D03*
D32*
X147875000Y-80574500D03*
%TD*%
D33*
%TO.C,R10*%
X171850000Y-74999500D03*
X171850000Y-76999500D03*
%TD*%
D34*
%TO.C,C8*%
X123042500Y-108124500D03*
X123042500Y-110199500D03*
%TD*%
D35*
%TO.C,U2*%
X133820000Y-109374500D03*
X134455000Y-109374500D03*
X135090000Y-109374500D03*
X135725000Y-109374500D03*
X136360000Y-109374500D03*
X136995000Y-109374500D03*
X137630000Y-109374500D03*
X138265000Y-109374500D03*
X138265000Y-104174500D03*
X137630000Y-104174500D03*
X136995000Y-104174500D03*
X136360000Y-104174500D03*
X135725000Y-104174500D03*
X135090000Y-104174500D03*
X134455000Y-104174500D03*
X133820000Y-104174500D03*
%TD*%
D36*
%TO.C,R19*%
X167050000Y-76999500D03*
X167050000Y-74999500D03*
%TD*%
D37*
%TO.C,C3*%
X188400000Y-98899500D03*
X190475000Y-98899500D03*
%TD*%
D38*
%TO.C,F1*%
X136042500Y-96774500D03*
X133242500Y-96774500D03*
%TD*%
D33*
%TO.C,R12*%
X177250000Y-75099500D03*
X177250000Y-77099500D03*
%TD*%
D30*
%TO.C,R17*%
X130725000Y-88574500D03*
X132725000Y-88574500D03*
%TD*%
D39*
%TO.C,D5*%
X167050000Y-81124500D03*
X167050000Y-79074500D03*
%TD*%
D30*
%TO.C,R18*%
X167700000Y-107274500D03*
X169700000Y-107274500D03*
%TD*%
D26*
%TO.C,C6*%
X136042500Y-101774500D03*
X133967500Y-101774500D03*
%TD*%
D14*
%TO.C,C12*%
X162475000Y-76762000D03*
X162475000Y-74687000D03*
%TD*%
D30*
%TO.C,R7*%
X130725000Y-79574500D03*
X132725000Y-79574500D03*
%TD*%
D26*
%TO.C,C10*%
X183262500Y-77174500D03*
X181187500Y-77174500D03*
%TD*%
D30*
%TO.C,R9*%
X154725000Y-112574500D03*
X156725000Y-112574500D03*
%TD*%
D33*
%TO.C,R11*%
X186250000Y-75099500D03*
X186250000Y-77099500D03*
%TD*%
D30*
%TO.C,R8*%
X154725000Y-109574500D03*
X156725000Y-109574500D03*
%TD*%
%TO.C,R5*%
X127042500Y-105774500D03*
X129042500Y-105774500D03*
%TD*%
D40*
%TO.C,U6*%
X157337500Y-74774500D03*
X157337500Y-75724500D03*
X157337500Y-76674500D03*
X159612500Y-76674500D03*
X159612500Y-74774500D03*
%TD*%
D28*
%TO.C,R1*%
X141042500Y-116774500D03*
X139042500Y-116774500D03*
%TD*%
D41*
%TO.C,U4*%
X182198500Y-79551000D03*
D42*
X180898500Y-78801000D03*
X180898500Y-79301000D03*
X180898500Y-79801000D03*
X180898500Y-80301000D03*
X183498500Y-80301000D03*
X183498500Y-79801000D03*
X183498500Y-79301000D03*
X183498500Y-78801000D03*
%TD*%
D30*
%TO.C,R14*%
X130725000Y-85574500D03*
X132725000Y-85574500D03*
%TD*%
D43*
%TO.C,U3*%
X152075500Y-92894500D03*
X152725500Y-92894500D03*
X153375500Y-92894500D03*
X153375500Y-90234500D03*
X152725500Y-90234500D03*
X152075500Y-90234500D03*
%TD*%
D27*
%TO.C,D3*%
X163300000Y-107274500D03*
X165350000Y-107274500D03*
%TD*%
D37*
%TO.C,C9*%
X127042500Y-99774500D03*
X129117500Y-99774500D03*
%TD*%
D27*
%TO.C,D2*%
X144017500Y-107774500D03*
X146067500Y-107774500D03*
%TD*%
D33*
%TO.C,R15*%
X151725500Y-95564500D03*
X151725500Y-97564500D03*
%TD*%
%TO.C,R16*%
X154725500Y-95564500D03*
X154725500Y-97564500D03*
%TD*%
D37*
%TO.C,C5*%
X137942500Y-101774500D03*
X140017500Y-101774500D03*
%TD*%
%TO.C,C2*%
X188400000Y-96599500D03*
X190475000Y-96599500D03*
%TD*%
D30*
%TO.C,R4*%
X148042500Y-107774500D03*
X150042500Y-107774500D03*
%TD*%
%TO.C,R6*%
X127042500Y-107774500D03*
X129042500Y-107774500D03*
%TD*%
D44*
%TO.C,FB1*%
X130142500Y-96774500D03*
X127042500Y-96774500D03*
%TD*%
D28*
%TO.C,R2*%
X141042500Y-114774500D03*
X139042500Y-114774500D03*
%TD*%
M02*
