M48
; DRILL file {KiCad 8.0.7} date 2025-02-09T15:31:50-0500
; FORMAT={-:-/ absolute / metric / decimal}
; #@! TF.CreationDate,2025-02-09T15:31:50-05:00
; #@! TF.GenerationSoftware,Kicad,Pcbnew,8.0.7
; #@! TF.FileFunction,MixedPlating,1,2
FMAT,2
METRIC
; #@! TA.AperFunction,Plated,PTH,ViaDrill
T1C0.300
; #@! TA.AperFunction,Plated,PTH,ComponentDrill
T2C0.850
; #@! TA.AperFunction,Plated,PTH,ComponentDrill
T3C1.000
; #@! TA.AperFunction,Plated,PTH,ComponentDrill
T4C1.020
%
G90
G05
T1
X118.242Y-109.674
X119.042Y-109.674
X119.843Y-109.674
X120.642Y-108.874
X120.642Y-109.674
X124.343Y-110.174
X124.542Y-103.674
X129.142Y-101.374
X133.942Y-98.474
X134.743Y-105.575
X135.435Y-103.032
X136.375Y-107.855
X139.142Y-103.075
X141.042Y-111.674
X141.243Y-101.774
X141.75Y-90.55
X142.142Y-103.274
X144.25Y-117.099
X144.725Y-81.575
X150.225Y-97.564
X153.25Y-118.599
X154.675Y-90.225
X155.675Y-86.575
X155.725Y-76.974
X155.725Y-78.224
X156.225Y-97.564
X157.225Y-78.224
X158.725Y-78.224
X158.975Y-75.724
X159.975Y-75.724
X160.225Y-78.224
X160.975Y-76.974
X161.725Y-78.224
X163.225Y-78.224
X167.05Y-82.7
X176.75Y-79.599
X178.0Y-97.299
X178.45Y-92.299
X179.325Y-83.099
X179.425Y-84.075
X179.75Y-80.099
X180.75Y-81.099
X181.225Y-75.674
X181.23Y-98.724
X181.35Y-92.2
X182.025Y-99.874
X182.125Y-96.274
X182.725Y-95.674
X182.75Y-82.599
X182.75Y-83.599
X183.725Y-99.874
X184.025Y-95.575
X185.325Y-99.874
X185.425Y-95.575
X186.725Y-95.274
X186.875Y-100.325
X188.125Y-94.974
X188.325Y-100.474
X189.525Y-94.974
X189.925Y-100.474
X191.125Y-94.974
X191.575Y-100.325
X192.025Y-96.075
X192.025Y-97.474
X192.025Y-98.874
T3
X159.17Y-116.599
X160.805Y-90.474
X161.71Y-116.599
X163.345Y-90.474
X164.25Y-116.599
X165.885Y-90.474
X168.425Y-90.474
X171.645Y-116.575
X171.725Y-86.474
X174.185Y-116.575
X174.265Y-86.474
X176.725Y-116.575
X176.805Y-86.474
X179.265Y-116.575
X179.345Y-86.474
X181.805Y-116.575
X181.885Y-86.474
X184.345Y-116.575
X184.425Y-86.474
X186.965Y-86.474
X199.725Y-92.495
X199.725Y-95.034
X199.725Y-97.575
X199.725Y-100.114
X199.725Y-102.654
X199.725Y-105.194
T4
X115.725Y-76.294
X115.725Y-81.374
T2
G00X114.792Y-103.624
M15
G01X113.292Y-103.624
M16
G05
G00X114.792Y-110.924
M15
G01X113.292Y-110.924
M16
G05
M30
